<svg style="display: none;" aria-hidden="true" xmlns="http://www.w3.org/2000/svg" xmlns:xlink="http://www.w3.org/1999/xlink"><symbol viewBox="0 0 11 61" id="svg-arrow-bottom-oblique"><path d="M9.09795 59.6018L9.5181 59.3308L9.5181 59.3308L9.09795 59.6018ZM10 61L9.71509 55.2335L4.86364 58.3635L10 61ZM9.58839 0.716134C-2.63574 18.4411 -2.99499 41.7801 8.6778 59.8729L9.5181 59.3308C-1.93569 41.5774 -1.58318 18.6763 10.4116 1.28387L9.58839 0.716134Z"/></symbol><symbol viewBox="0 0 40 3" id="svg-arrow-left"><path d="M0 2.99999L5 5.88674L5 0.113242L0 2.99999ZM80 2.5L4.5 2.49999L4.5 3.49999L80 3.5L80 2.5Z"/></symbol><symbol viewBox="0 0 40 6" id="svg-arrow-right"><path d="M40 3L35 0.113249V5.88675L40 3ZM0 3.5H35.5V2.5H0V3.5Z"/></symbol><symbol viewBox="0 0 26 23" fill="none" id="svg-cart"><path d="M25.538 21.2201L23.8715 6.22006C23.8336 5.87597 23.67 5.558 23.412 5.32713C23.1541 5.09626 22.82 4.96876 22.4738 4.96908H18.1343C18.0175 3.68823 17.426 2.49732 16.4761 1.63016C15.5263 0.763 14.2865 0.282227 13.0004 0.282227C11.7142 0.282227 10.4745 0.763 9.52457 1.63016C8.57468 2.49732 7.98325 3.68823 7.86637 4.96908H3.52692C3.18075 4.96876 2.84665 5.09626 2.5887 5.32713C2.33076 5.558 2.16714 5.87597 2.12922 6.22006L0.4627 21.2201C0.440864 21.4166 0.460731 21.6156 0.521006 21.8039C0.581281 21.9923 0.680606 22.1658 0.812498 22.3132C0.94439 22.4605 1.10588 22.5784 1.28643 22.6591C1.46697 22.7398 1.66251 22.7816 1.86028 22.7816H24.1403C24.3381 22.7816 24.5336 22.7399 24.7142 22.6592C24.8948 22.5785 25.0563 22.4606 25.1882 22.3132C25.3201 22.1658 25.4194 21.9923 25.4797 21.804C25.54 21.6156 25.5599 21.4166 25.538 21.2201ZM13.0004 1.21908C14.0376 1.22046 15.0381 1.60342 15.8112 2.29499C16.5843 2.98655 17.0759 3.93838 17.1924 4.96908H8.80832C8.9248 3.93838 9.41643 2.98655 10.1895 2.29499C10.9626 1.60342 11.9631 1.22046 13.0004 1.21908ZM24.4897 21.688C24.4459 21.7374 24.3922 21.7769 24.3319 21.8038C24.2717 21.8307 24.2064 21.8445 24.1404 21.8441H1.86028C1.79436 21.8441 1.72918 21.8302 1.669 21.8033C1.60882 21.7763 1.55499 21.737 1.51103 21.6879C1.46707 21.6388 1.43396 21.5809 1.41388 21.5182C1.39379 21.4554 1.38717 21.3891 1.39446 21.3235L3.0611 6.32354C3.07374 6.20886 3.12828 6.10289 3.21424 6.02594C3.30021 5.949 3.41155 5.90649 3.52692 5.90658H7.84411V9.18783C7.84411 9.31215 7.89349 9.43138 7.9814 9.51929C8.06931 9.6072 8.18854 9.65658 8.31286 9.65658C8.43718 9.65658 8.55641 9.6072 8.64431 9.51929C8.73222 9.43138 8.78161 9.31215 8.78161 9.18783V5.90658H17.2191V9.18783C17.2191 9.31215 17.2685 9.43138 17.3564 9.51929C17.4443 9.6072 17.5635 9.65658 17.6879 9.65658C17.8122 9.65658 17.9314 9.6072 18.0193 9.51929C18.1072 9.43138 18.1566 9.31215 18.1566 9.18783V5.90658H22.4738C22.5892 5.90649 22.7005 5.949 22.7865 6.02594C22.8724 6.10289 22.927 6.20886 22.9396 6.32354L24.6063 21.3235C24.6139 21.3891 24.6075 21.4555 24.5873 21.5184C24.5672 21.5812 24.5339 21.639 24.4897 21.688Z" fill="#fff"/></symbol><symbol viewBox="0 0 25 25" id="svg-instagram"><path d="M12.4884 8.32593C10.1947 8.32593 8.3228 10.1978 8.3228 12.4916C8.3228 14.7853 10.1947 16.6572 12.4884 16.6572C14.7822 16.6572 16.6541 14.7853 16.6541 12.4916C16.6541 10.1978 14.7822 8.32593 12.4884 8.32593ZM24.9822 12.4916C24.9822 10.7666 24.9978 9.05718 24.9009 7.3353C24.8041 5.3353 24.951 2.95371 23.4885 1.49121C22.0229 0.0255859 19.6478 0.179054 17.6478 0.0821795C15.9228 -0.0146955 14.2134 0.000929513 12.4916 0.000929513C10.7666 0.000929513 9.05718 -0.0146955 7.3353 0.0821795C5.3353 0.179054 2.95103 0.028711 1.48853 1.49121C0.0229003 2.95684 0.179054 5.3353 0.0821795 7.3353C-0.0146955 9.0603 0.000929513 10.7697 0.000929513 12.4916C0.000929513 14.2134 -0.0146955 15.9259 0.0821795 17.6478C0.179054 19.6478 0.0260254 22.0287 1.48853 23.4912C2.95415 24.9568 5.3353 24.8041 7.3353 24.9009C9.0603 24.9978 10.7697 24.9822 12.4916 24.9822C14.2166 24.9822 15.9259 24.9978 17.6478 24.9009C19.6478 24.8041 22.026 24.9537 23.4885 23.4912C24.9542 22.0256 24.8041 19.6478 24.9009 17.6478C25.0009 15.9259 24.9822 14.2166 24.9822 12.4916ZM12.4884 18.9009C8.94155 18.9009 6.07905 16.0384 6.07905 12.4916C6.07905 8.94468 8.94155 6.08218 12.4884 6.08218C16.0353 6.08218 18.8978 8.94468 18.8978 12.4916C18.8978 16.0384 16.0353 18.9009 12.4884 18.9009ZM19.1603 7.31655C18.3322 7.31655 17.6634 6.6478 17.6634 5.81968C17.6634 4.99155 18.3322 4.3228 19.1603 4.3228C19.9884 4.3228 20.6572 4.99155 20.6572 5.81968C20.6574 6.01632 20.6189 6.21108 20.5437 6.3928C20.4686 6.57452 20.3584 6.73963 20.2193 6.87868C20.0803 7.01773 19.9151 7.12798 19.7334 7.20311C19.5517 7.27825 19.3569 7.3168 19.1603 7.31655Z"/></symbol><symbol viewBox="0 0 24 24" id="svg-phone-icon"><path d="M19.9902 24H3.99023C1.99023 24 1.46365 23.707 0.878289 23.1211C0.292923 22.5352 -0.00976562 22 0.000240437 20V4C0.000240437 2 0.292923 1.46484 0.878289 0.878906C1.46365 0.292969 1.99023 0 3.99023 0H19.9902C20.8175 0 22.0036 0.0124413 22.9902 1C23.9768 1.98756 23.9768 3.17188 23.9768 4V20C23.9902 22 23.6841 22.5352 23.0988 23.1211C22.5134 23.707 21.9902 24 19.9902 24ZM7.49292 9V6.75C7.49292 6.32812 7.36414 5.91406 7.10658 5.50781C6.84902 5.10156 6.56414 4.8125 6.25195 4.64062C5.93975 4.46875 5.6978 4.46094 5.52609 4.61719L3.81683 6.35156C3.34853 6.82031 3.08317 7.44922 3.02073 8.23828C2.95829 9.02734 3.07926 9.88672 3.38366 10.8164C3.68805 11.7461 4.17585 12.7305 4.84707 13.7695C5.51829 14.8086 6.32219 15.7969 7.25878 16.7344C8.19536 17.6719 9.18268 18.4766 10.2207 19.1484C11.2588 19.8203 12.2422 20.3125 13.171 20.625C14.0998 20.9375 14.9583 21.0625 15.7466 21C16.5349 20.9375 17.1632 20.6719 17.6315 20.2031L19.3641 18.4688C19.5202 18.3125 19.5124 18.0742 19.3407 17.7539C19.169 17.4336 18.8802 17.1445 18.4744 16.8867C18.0685 16.6289 17.6549 16.5 17.2334 16.5H14.9856L13.4637 17.4375C12.7612 17.25 11.8949 16.7422 10.8646 15.9141C9.83439 15.0859 8.90561 14.1562 8.07829 13.125C7.25097 12.0938 6.74365 11.2266 6.55634 10.5234L7.49292 9ZM16.4373 12.75L17.9593 13.0078C17.8344 11.1328 17.1085 9.53125 15.7817 8.20312C14.4549 6.875 12.8627 6.14844 11.0051 6.02344L11.2393 7.54688C12.5973 7.71875 13.7602 8.28906 14.728 9.25781C15.6959 10.2266 16.2656 11.3906 16.4373 12.75ZM11.5202 9.11719L11.8012 10.8047C12.41 11.1016 12.8705 11.5625 13.1827 12.1875L14.8685 12.4688C14.6656 11.6406 14.2637 10.9258 13.6627 10.3242C13.0617 9.72266 12.3476 9.32031 11.5202 9.11719ZM10.49 3L10.7476 4.52344C12.3085 4.55469 13.7485 4.96484 15.0676 5.75391C16.3866 6.54297 17.4402 7.59766 18.2285 8.91797C19.0168 10.2383 19.4266 11.6797 19.4578 13.2422L20.9798 13.5C20.9798 12.0781 20.7027 10.7188 20.1485 9.42188C19.5944 8.125 18.849 7.00781 17.9124 6.07031C16.9759 5.13281 15.8598 4.38672 14.5641 3.83203C13.2685 3.27734 11.9105 3 10.49 3Z"/></symbol><symbol viewBox="0 0 13 13" id="svg-phone2"><path d="M11.9997 12.6667C12.551 12.6667 12.9997 12.218 12.9997 11.6667V9.33333C12.9997 8.782 12.551 8.33333 11.9997 8.33333C11.2197 8.33333 10.453 8.21067 9.71968 7.96867C9.54438 7.91331 9.35735 7.90659 9.17853 7.94921C8.99971 7.99183 8.83582 8.08219 8.70434 8.21067L7.74434 9.17067C6.08508 8.26988 4.72236 6.90762 3.82101 5.24867L4.77301 4.29067C5.04767 4.036 5.14634 3.64867 5.02901 3.276C4.7875 2.54153 4.66506 1.77315 4.66634 1C4.66634 0.448667 4.21767 0 3.66634 0H1.33301C0.781674 0 0.333008 0.448667 0.333008 1C0.333008 7.43333 5.56634 12.6667 11.9997 12.6667ZM1.33301 0.666667H3.66634C3.75475 0.666667 3.83953 0.701786 3.90204 0.764298C3.96456 0.82681 3.99967 0.911595 3.99967 1C3.99967 1.85133 4.13301 2.68733 4.39501 3.48C4.41426 3.53752 4.41651 3.59937 4.40149 3.65814C4.38647 3.71691 4.35483 3.7701 4.31034 3.81133L3.00634 5.122C4.09767 7.274 5.70967 8.886 7.87167 9.98667L9.17101 8.68667C9.21534 8.64279 9.27078 8.6118 9.33137 8.597C9.39196 8.58221 9.45544 8.58417 9.51501 8.60267C10.3123 8.86667 11.1483 9 11.9997 9C12.183 9 12.333 9.15 12.333 9.33333V11.6667C12.333 11.85 12.183 12 11.9997 12C5.93434 12 0.999674 7.06533 0.999674 1C0.999674 0.911595 1.03479 0.82681 1.09731 0.764298C1.15982 0.701786 1.2446 0.666667 1.33301 0.666667Z"/></symbol><symbol viewBox="0 0 16 16" id="svg-search"><path d="M14.9489 14.5509L11.7239 11.326C12.8154 10.1308 13.3957 8.55591 13.3407 6.93829C13.2857 5.32068 12.5998 3.78882 11.4297 2.67051C10.2597 1.5522 8.69835 0.936262 7.0799 0.954495C5.46145 0.972728 3.91441 1.62368 2.76982 2.76807C1.62523 3.91246 0.974004 5.45938 0.955484 7.07783C0.936965 8.69627 1.55263 10.2577 2.67073 11.428C3.78883 12.5982 5.32057 13.2844 6.93818 13.3397C8.55578 13.395 10.1308 12.8149 11.3261 11.7237L14.5512 14.9488C14.6039 15.0015 14.6755 15.0311 14.7501 15.0311C14.8247 15.0311 14.8962 15.0014 14.9489 14.9487C15.0017 14.8959 15.0313 14.8244 15.0313 14.7498C15.0313 14.6752 15.0016 14.6037 14.9489 14.5509ZM1.53175 7.15602C1.53175 6.0435 1.86165 4.95597 2.47974 4.03094C3.09782 3.10591 3.97632 2.38494 5.00416 1.9592C6.03199 1.53346 7.16299 1.42206 8.25413 1.6391C9.34528 1.85615 10.3476 2.39188 11.1342 3.17855C11.9209 3.96522 12.4566 4.9675 12.6737 6.05864C12.8907 7.14978 12.7793 8.28078 12.3536 9.30862C11.9278 10.3365 11.2069 11.215 10.2818 11.833C9.35681 12.4511 8.26927 12.781 7.15675 12.781C5.66542 12.7793 4.23566 12.1862 3.18113 11.1316C2.1266 10.0771 1.53343 8.64735 1.53175 7.15602Z"/></symbol><symbol viewBox="0 0 25 25" id="svg-whatsapp"><path d="M24.5716 5.91128C24.5615 5.39288 24.52 4.87556 24.4471 4.3622C24.3603 3.90557 24.2128 3.46262 24.0085 3.04512C23.5612 2.16219 22.8442 1.44477 21.9616 0.996992C21.5468 0.793645 21.1067 0.646542 20.653 0.559576C20.1357 0.485242 19.6143 0.44287 19.0918 0.432701C18.8707 0.424242 18.5843 0.420617 18.4514 0.420617L6.5517 0.416992C6.41879 0.416992 6.13241 0.420617 5.91128 0.429076C5.39287 0.439064 4.87556 0.480627 4.3622 0.553534C3.90557 0.64034 3.46262 0.787858 3.04512 0.992159C2.16224 1.43948 1.44484 2.15646 0.996992 3.03908C0.793698 3.45391 0.646598 3.894 0.559576 4.3477C0.484904 4.86497 0.442129 5.38634 0.431492 5.90887C0.424242 6.12999 0.419409 6.41637 0.419409 6.54928L0.416992 18.4489C0.416992 18.5819 0.420617 18.8682 0.429076 19.0894C0.439064 19.6078 0.480627 20.1251 0.553534 20.6385C0.640354 21.0951 0.787871 21.538 0.992159 21.9555C1.43948 22.8384 2.15646 23.5558 3.03908 24.0037C3.45393 24.2069 3.894 24.354 4.3477 24.4411C4.86499 24.5154 5.38637 24.5578 5.90887 24.5679C6.12999 24.5764 6.41637 24.58 6.54928 24.58L18.449 24.5824C18.5819 24.5824 18.8682 24.5788 19.0894 24.5704C19.6078 24.5603 20.1251 24.5188 20.6385 24.4459C21.0951 24.359 21.538 24.2115 21.9555 24.0073C22.8389 23.5602 23.5567 22.8432 24.0049 21.9604C24.2082 21.5455 24.3553 21.1055 24.4423 20.6517C24.517 20.1345 24.5598 19.6131 24.5704 19.0906C24.5776 18.8694 24.5825 18.5831 24.5825 18.4502L24.5837 6.5517C24.5837 6.41878 24.58 6.13241 24.5716 5.91128ZM12.7625 20.9067H12.7589C11.3206 20.9064 9.90524 20.5458 8.64212 19.8579L4.07462 21.0553L5.29745 16.5929C4.35067 14.95 3.97236 13.0406 4.22119 11.1607C4.47002 9.28091 5.33208 7.53568 6.67371 6.19564C8.01535 4.8556 9.7616 3.99562 11.6417 3.74903C13.5219 3.50243 15.4308 3.88301 17.0727 4.83175C18.7145 5.78049 19.9974 7.24439 20.7226 8.99647C21.4478 10.7486 21.5747 12.691 21.0836 14.5225C20.5925 16.354 19.5109 17.9724 18.0064 19.1267C16.502 20.2809 14.6588 20.9066 12.7625 20.9067Z"/><path d="M12.7664 5.13011C11.4869 5.12974 10.2306 5.47217 9.12829 6.12178C8.02594 6.77139 7.11775 7.70447 6.49817 8.82398C5.87859 9.94349 5.57025 11.2085 5.60521 12.4876C5.64017 13.7666 6.01716 15.013 6.69697 16.0969L6.86734 16.3676L6.14355 19.009L8.85384 18.2985L9.11484 18.4532C10.2182 19.1066 11.4769 19.4514 12.7592 19.4513H12.7628C14.6621 19.4516 16.4837 18.6974 17.8269 17.3547C19.1701 16.0119 19.9249 14.1906 19.9252 12.2913C19.9255 10.392 19.1713 8.57043 17.8286 7.22722C16.4858 5.88401 14.6645 5.12923 12.7652 5.12891L12.7664 5.13011ZM16.9763 15.3647C16.8179 15.6263 16.6071 15.8522 16.3571 16.0284C16.1072 16.2045 15.8234 16.327 15.5238 16.3882C15.0715 16.4657 14.6073 16.4368 14.1681 16.3036C13.7516 16.1738 13.3422 16.0221 12.9416 15.8492C11.4551 15.1032 10.188 13.9835 9.26467 12.6C8.76101 11.9596 8.45528 11.186 8.38501 10.3743C8.3792 10.0392 8.44325 9.70664 8.57307 9.3977C8.70288 9.08876 8.89562 8.81025 9.13901 8.57991C9.21094 8.49785 9.29905 8.43156 9.39782 8.38519C9.4966 8.33882 9.60389 8.31337 9.71297 8.31045C9.85555 8.31045 9.99934 8.31045 10.125 8.3177C10.2579 8.32374 10.4343 8.26695 10.6083 8.68745C10.7896 9.11762 11.2198 10.1773 11.2729 10.2849C11.3071 10.3412 11.3266 10.4052 11.3297 10.4711C11.3329 10.5369 11.3196 10.6025 11.291 10.6619C11.2368 10.7911 11.1644 10.912 11.076 11.0207C10.9672 11.1464 10.85 11.3011 10.7533 11.3977C10.6446 11.5053 10.5334 11.6213 10.6579 11.8364C10.9811 12.3898 11.3847 12.8923 11.8553 13.3274C12.366 13.7815 12.952 14.1429 13.5869 14.3956C13.802 14.5044 13.9276 14.485 14.0533 14.3412C14.179 14.1974 14.591 13.7129 14.7348 13.4978C14.8786 13.2827 15.0212 13.319 15.2181 13.3903C15.4151 13.4616 16.4748 13.9824 16.6899 14.0911C16.905 14.1999 17.0488 14.2518 17.1019 14.3412C17.1609 14.6873 17.1172 15.0431 16.9763 15.3647Z"/></symbol></svg>